
<svg

   viewBox="0 0 476 553"
   height="553"
   width="476"
   id="svg96"
   version="1.1">
 
  <defs
     id="defs100" />
  <path
     id="path148"
     d="m 125.97373,430.20665 c -4.78727,-1.68774 -9.19189,-5.9238 -11.63181,-11.18667 l -1.92128,-4.14416 0.16542,-148.74518 0.16542,-148.74518 1.86083,-3.58127 c 3.09693,-5.96022 7.80431,-9.86663 13.29886,-11.03607 4.18132,-0.88993 164.8209,-0.65677 168.04682,0.24391 1.0644,0.29719 2.85936,1.23543 3.98879,2.08497 1.12943,0.84955 2.19726,1.54463 2.37295,1.54463 0.47648,0 69.43628,69.7469 69.43943,70.232 10e-4,0.22925 0.72721,1.85829 1.61273,3.62009 l 1.61003,3.20328 -5.1e-4,115.62998 -5.1e-4,115.62998 -1.92854,4.1148 c -2.53585,5.41058 -6.84013,9.45611 -11.89374,11.17874 -3.79765,1.29451 -5.23951,1.30993 -117.73972,1.25916 -110.62587,-0.0499 -113.9969,-0.0873 -117.44517,-1.30301 z m 232.33147,-1.03771 c 2.60375,-0.63434 5.15018,-1.72292 6.09266,-2.60457 0.89057,-0.83309 1.82199,-1.51473 2.06981,-1.51474 0.79891,-3e-5 3.80664,-4.20864 5.37589,-7.52227 l 1.52563,-3.22154 V 299.37941 184.453 l -1.74333,-3.63463 c -1.44195,-3.00631 -6.77569,-8.71891 -30.85382,-33.04541 -16.01077,-16.17593 -29.37801,-29.41079 -29.70497,-29.41079 -0.32697,0 -0.59448,-0.46695 -0.59448,-1.03767 0,-0.57072 -0.58058,-1.19092 -1.29019,-1.37822 -0.7096,-0.18731 -1.29018,-0.69887 -1.29018,-1.13681 0,-0.43793 -0.72573,-1.13001 -1.61274,-1.53795 -0.887,-0.40793 -1.61273,-1.1875 -1.61273,-1.73237 0,-0.54487 -0.44455,-0.99067 -0.98788,-0.99067 -0.54335,0 -1.14073,-0.40203 -1.32754,-0.8934 -0.69399,-1.82546 -5.80124,-4.76974 -9.56512,-5.5142 -5.89085,-1.16516 -158.72192,-1.04702 -163.66114,0.12652 -6.02953,1.43258 -10.45939,5.23092 -13.40059,11.49021 l -1.68281,3.58128 v 147.48346 147.48347 l 1.72742,3.72005 c 2.69677,5.80755 6.59219,9.18368 12.73855,11.04041 3.2949,0.99534 12.89745,1.09094 114.4604,1.1395 101.56003,0.0486 111.23915,-0.0385 115.33716,-1.03684 z M 132.42682,414.17496 c -0.5322,-0.20056 -1.47565,-0.81134 -2.09655,-1.35731 -1.06883,-0.93983 -1.12891,-8.71239 -1.12891,-146.0497 0,-130.943 0.0985,-145.15651 1.01275,-146.07929 0.55701,-0.56224 1.6456,-1.17631 2.4191,-1.3646 0.77349,-0.1883 35.51566,-0.26199 77.20482,-0.16377 l 75.79847,0.1786 0.33178,30.27806 c 0.31493,28.73947 0.39688,30.38539 1.61273,32.39016 0.70452,1.16164 1.49867,2.11394 1.76477,2.1162 0.2661,0.002 0.48382,0.34214 0.48382,0.75528 0,0.41315 1.23374,1.90542 2.74165,3.31618 5.30656,4.96468 3.3257,4.68661 35.96395,5.04864 l 29.35175,0.32557 0.16315,109.12629 0.16314,109.12629 -1.35969,1.24213 c -1.32562,1.21099 -4.14391,1.24506 -112.40939,1.35902 -61.07733,0.0643 -111.48513,-0.0472 -112.01734,-0.24775 z m 222.59962,-2.17104 c 1.22595,-0.66226 1.24778,-2.56479 1.24778,-108.74057 V 195.19683 l -26.6101,-0.008 c -28.29447,-0.008 -31.50737,-0.30064 -35.42507,-3.22427 -0.97725,-0.7293 -2.00631,-1.33847 -2.28677,-1.35373 -0.57715,-0.0314 -4.68794,-5.31447 -6.05829,-7.78595 -0.72893,-1.31467 -0.93939,-7.42179 -1.09387,-31.74313 l -0.19128,-30.11526 h -75.48832 c -50.80238,0 -75.89637,0.22043 -76.73611,0.67405 -1.22788,0.66331 -1.24777,2.97753 -1.24777,145.17212 0,136.93028 0.0591,144.53282 1.12891,145.16176 1.58475,0.93169 221.03699,0.9605 222.76089,0.0292 z M 175.67525,348.96696 c -2.52635,-2.42579 -2.60754,-2.63592 -2.60754,-6.74875 0,-3.7208 0.21907,-4.48748 1.77401,-6.20858 0.9757,-1.07996 2.76077,-2.29172 3.96682,-2.6928 3.10222,-1.03164 126.69157,-1.03164 129.79378,0 1.20605,0.40108 2.99112,1.61284 3.96682,2.6928 1.55494,1.7211 1.77401,2.48778 1.77401,6.20858 0,4.11283 -0.0812,4.32296 -2.60754,6.74875 l -2.60753,2.50374 h -65.42265 -65.42265 z m 132.83713,0.23776 c 4.89961,-2.55744 6.0805,-8.13016 2.56505,-12.10463 l -1.97553,-2.23349 h -65.39647 -65.39646 l -1.97554,2.23349 c -3.36949,3.80945 -2.40579,9.02638 2.18997,11.85523 1.87656,1.1551 4.73761,1.20834 65.05279,1.21066 54.44296,0.002 63.34296,-0.12964 64.93619,-0.96126 z M 175.57219,304.66515 c -2.39051,-2.41294 -2.50448,-2.7187 -2.50448,-6.71971 0,-3.65423 0.22749,-4.44803 1.77401,-6.19029 0.9757,-1.09919 2.93517,-2.32239 4.35438,-2.7182 3.6288,-1.01208 125.38987,-1.01208 129.01866,0 1.41921,0.39581 3.37868,1.61901 4.35438,2.7182 1.54652,1.74226 1.77401,2.53606 1.77401,6.19029 0,4.00101 -0.11396,4.30677 -2.50448,6.71971 l -2.50448,2.52796 h -65.62876 -65.62875 z m 134.87324,-1.27807 c 2.29096,-2.19978 2.60435,-2.85196 2.58132,-5.37191 -0.0203,-2.21954 -0.46253,-3.38357 -1.95549,-5.14717 l -1.92927,-2.27899 -63.03766,-0.19367 c -34.67072,-0.10651 -64.24111,-0.0199 -65.71198,0.19249 -2.15558,0.31126 -3.00018,0.86081 -4.35438,2.83323 -2.60822,3.79896 -2.32493,6.84308 0.92747,9.96602 l 2.60753,2.50374 h 64.13246 64.13246 z M 177.26082,262.13375 c -3.14162,-1.80717 -4.19149,-3.9057 -4.19232,-8.37973 -6.5e-4,-3.85287 0.1955,-4.49984 1.97475,-6.51141 l 1.97553,-2.23348 h 66.68665 66.68665 l 1.97554,2.23348 c 1.77924,2.01157 1.97545,2.65854 1.97474,6.51141 -6.4e-4,4.53477 -1.10884,6.69569 -4.31118,8.40804 -2.00047,1.06969 -130.90936,1.0422 -132.77036,-0.0283 z m 133.28767,-3.04848 c 2.03181,-2.05086 2.50447,-2.99566 2.50447,-5.00605 0,-3.43324 -2.26622,-6.63404 -5.28676,-7.46702 -2.81189,-0.77543 -128.01987,-0.58429 -129.53774,0.19776 -1.85501,0.95575 -3.87056,4.74114 -3.87056,7.26926 0,2.01039 0.47267,2.95519 2.50448,5.00605 l 2.50448,2.52796 h 64.33857 64.33857 z m -7.81702,-82.10609 c -0.8236,-0.52508 -0.99523,-3.96281 -1.15299,-23.09444 -0.17606,-21.35179 -0.1276,-22.45658 0.96764,-22.0595 1.6061,0.58228 44.69679,43.91808 44.69679,44.95101 0,0.6692 -4.42207,0.83774 -21.7719,0.8298 -12.57931,-0.006 -22.18046,-0.27045 -22.73954,-0.62687 z m 21.35392,-21.52519 c -11.14003,-11.08918 -20.3568,-20.16215 -20.48171,-20.16215 -0.12491,0 -0.22712,9.08342 -0.22712,20.18538 v 20.18537 l 20.48172,-0.0232 20.48171,-0.0232 -20.2546,-20.16214 z"
     style="fill:#000000;stroke-width:0.64811015" />
</svg>
