
<svg
  
   viewBox="0 0 585 484"
   height="484"
   width="585"
   id="svg80"
   version="1.1">
  
  <defs
     id="defs84" />
  <path
     id="path90"
     d="m 180.53998,383.11939 c -9.1369,-3.7787 -14.77156,-11.26346 -16.8814,-22.4243 -0.47706,-2.52356 -1.23425,-6.55143 -1.68265,-8.95081 -0.68953,-3.68968 -0.79114,-18.45057 -0.65884,-95.70764 l 0.15643,-91.34513 1.32816,-4.44925 c 3.54796,-11.88543 10.44089,-19.97011 20.59916,-24.16062 2.95727,-1.21994 5.43966,-1.59597 12.33954,-1.86917 l 8.63752,-0.34199 0.1954,-14.54115 c 0.17483,-13.00962 0.32119,-14.87118 1.38962,-17.67459 1.74378,-4.575386 4.42049,-7.915093 8.0897,-10.093433 3.2313,-1.91837 3.25543,-1.9214 16.98402,-2.13693 l 13.7481,-0.21583 0.23466,-7.013884 c 0.17341,-5.183547 0.5465,-7.849251 1.42967,-10.215038 1.51917,-4.06941 5.2251,-8.564735 8.62897,-10.467019 l 2.64789,-1.479796 60.6561,-0.219016 c 43.74302,-0.157947 61.71642,9.71e-4 64.4588,0.569931 6.05942,1.257148 10.68401,5.61164 12.35055,11.629218 0.46378,1.674601 0.6482,18.571154 0.6482,59.386927 v 57.04642 l 11.81797,0.004 c 6.49989,0.002 13.22759,0.28519 14.95045,0.62887 12.68739,2.53095 21.05572,13.44079 22.07974,28.78549 0.4016,6.01787 -0.26748,9.42624 -6.94824,35.39491 -3.25098,12.63672 -10.17721,39.55268 -15.39161,59.81309 -5.2144,20.26041 -10.10898,38.50311 -10.87684,40.53934 -4.63081,12.28011 -14.83878,23.37393 -26.45275,28.74831 l -4.27155,1.97667 -98.2458,0.15938 -98.2458,0.15937 z m 196.50475,-18.79208 c 8.24139,-2.34746 16.18227,-10.18194 19.63934,-19.37621 0.74071,-1.96994 2.2445,-7.08238 3.34176,-11.36098 1.09727,-4.2786 7.80088,-30.24303 14.89692,-57.69872 14.00277,-54.17891 14.58544,-57.09868 12.363,-61.95182 -0.63541,-1.38756 -2.13017,-3.05407 -3.55814,-3.96698 l -2.46242,-1.57424 -95.75305,0.17999 -95.75306,0.17999 -4.35845,2.60423 c -5.02065,2.99989 -9.71381,7.89629 -12.59044,13.13565 -1.83641,3.34474 -4.9987,14.4994 -12.32496,43.47492 -0.57452,2.27219 -5.55056,21.67135 -11.05787,43.10924 -7.02792,27.35697 -10.01331,39.95094 -10.01331,42.2414 0,5.80421 2.38058,9.71782 6.85531,11.26994 1.26762,0.43969 35.04802,0.70277 94.52297,0.73614 81.22232,0.0456 93.00351,-0.0772 96.2524,-1.00255 z M 186.51527,255.2872 c 4.67261,-18.2465 9.2021,-34.65138 10.26601,-37.18138 1.04718,-2.49022 3.2064,-6.46576 4.79827,-8.83454 l 2.8943,-4.30687 v -25.47267 -25.47266 l -3.8444,-0.14505 c -10.54727,-0.39794 -14.36762,0.82922 -18.67176,5.99768 -1.81641,2.18116 -3.12081,4.48124 -3.55963,6.27678 -0.52049,2.12969 -0.69263,17.68803 -0.69263,62.60014 0,32.87134 0.10075,59.63697 0.2239,59.47918 0.12314,-0.15779 3.98681,-14.98106 8.58594,-32.94061 z m 40.47133,-65.20487 c 3.17267,-1.15751 7.6617,-1.25558 66.76278,-1.45854 l 63.36143,-0.2176 v -40.12208 c 0,-30.288 -0.16751,-40.32459 -0.68345,-40.94832 -0.99236,-1.19971 -134.33056,-1.19971 -135.32292,0 -0.51683,0.62482 -0.68344,11.20424 -0.68344,43.39596 v 42.56971 l 1.58211,-0.98909 c 0.87017,-0.54399 3.11273,-1.54751 4.98349,-2.23004 z m 7.93181,-21.22826 c -2.67523,-3.2342 -1.18857,-8.12524 2.72896,-8.97816 1.01929,-0.22192 24.2371,-0.31366 51.59512,-0.20385 l 49.74188,0.19965 1.37442,1.93188 c 1.7551,2.467 1.74695,4.91005 -0.0235,7.05048 l -1.39799,1.69007 h -51.31046 -51.31045 z m 1.16497,-25.98867 c -2.88387,-2.01495 -3.40209,-5.79657 -1.16497,-8.50112 l 1.39796,-1.69007 h 51.31045 51.31046 l 1.39796,1.69007 c 1.7705,2.14043 1.77865,4.58348 0.0235,7.05048 l -1.37442,1.93189 -50.88096,0.15731 c -37.66706,0.11646 -51.17676,-0.0494 -52.02002,-0.63856 z m 146.65676,-6.30237 V 84.679776 l -1.28147,-2.276283 c -0.7048,-1.251955 -2.005,-2.924462 -2.88932,-3.71668 -1.60318,-1.436216 -1.77464,-1.440927 -59.04117,-1.622204 -51.79666,-0.163962 -57.52196,-0.07466 -58.33632,0.909862 -0.66222,0.800586 -0.90299,2.455497 -0.90299,6.206567 v 5.114899 h 48.03568 c 52.2502,0 50.99653,-0.0872 55.72571,3.87493 1.24978,1.04706 3.01665,3.211627 3.92637,4.810137 3.28949,5.780116 3.37269,7.030246 3.37269,50.674386 v 39.7909 h 5.69541 5.69541 z"
     style="fill:#000000;stroke-width:0.62622201" />
</svg>
